#N canvas 800 252 996 743 12;
#X obj 173 384 osc~ 440;
#X obj 287 652 dac~;
#X floatatom 397 366 5 0 0 0 - - - 0;
#X floatatom 171 233 5 0 0 0 - - - 0;
#X obj 394 420 osc~;
#X obj 394 478 *~ 0.75;
#X obj 393 316 * 2;
#X floatatom 471 364 5 0 0 0 - - - 0;
#X obj 468 418 osc~;
#X floatatom 561 366 5 0 0 0 - - - 0;
#X obj 558 420 osc~;
#X obj 557 316 * 4;
#X obj 558 478 *~ 0.35;
#X obj 299 561 *~ 0.1, f 12;
#X obj 467 314 * 6;
#X obj 468 476 *~ 0.8;
#X msg 172 145 440;
#X obj 173 78 loadbang;
#X connect 0 0 13 0;
#X connect 2 0 4 0;
#X connect 3 0 0 0;
#X connect 3 0 6 0;
#X connect 3 0 11 0;
#X connect 3 0 14 0;
#X connect 4 0 5 0;
#X connect 5 0 13 0;
#X connect 6 0 2 0;
#X connect 7 0 8 0;
#X connect 8 0 15 0;
#X connect 9 0 10 0;
#X connect 10 0 12 0;
#X connect 11 0 9 0;
#X connect 12 0 13 0;
#X connect 13 0 1 0;
#X connect 13 0 1 1;
#X connect 14 0 7 0;
#X connect 15 0 13 0;
#X connect 16 0 3 0;
#X connect 17 0 16 0;
