#N canvas 602 253 996 743 12;
#X obj 173 384 osc~ 440;
#X obj 287 652 dac~;
#X floatatom 397 366 5 0 0 0 - - - 0;
#X floatatom 579 150 5 0 0 0 - - - 0;
#X obj 394 420 osc~;
#X floatatom 471 364 5 0 0 0 - - - 0;
#X obj 468 418 osc~;
#X floatatom 561 366 5 0 0 0 - - - 0;
#X obj 558 420 osc~;
#X obj 299 561 *~ 0.1, f 12;
#X msg 172 145 440;
#X obj 173 78 loadbang;
#X floatatom 647 367 5 0 0 0 - - - 0;
#X obj 644 421 osc~;
#X floatatom 721 365 5 0 0 0 - - - 0;
#X obj 718 419 osc~;
#X floatatom 811 367 5 0 0 0 - - - 0;
#X obj 808 421 osc~;
#X floatatom 906 369 5 0 0 0 - - - 0;
#X obj 903 423 osc~;
#X obj 393 316 * 2.23;
#X obj 467 314 * 3.73;
#X obj 557 316 * 4.81;
#X obj 643 317 * 5.43;
#X obj 717 315 * 6.24;
#X obj 807 317 * 7.35;
#X obj 902 319 * 8.12;
#X obj 394 478 *~ 0.85;
#X obj 468 476 *~ 0.75;
#X obj 558 478 *~ 0.1;
#X obj 644 479 *~ 0.65;
#X obj 718 477 *~ 0.2;
#X obj 808 479 *~ 0.55;
#X obj 903 481 *~ 0.45;
#X connect 0 0 9 0;
#X connect 2 0 4 0;
#X connect 3 0 0 0;
#X connect 3 0 20 0;
#X connect 3 0 21 0;
#X connect 3 0 22 0;
#X connect 3 0 23 0;
#X connect 3 0 24 0;
#X connect 3 0 25 0;
#X connect 3 0 26 0;
#X connect 4 0 27 0;
#X connect 5 0 6 0;
#X connect 6 0 28 0;
#X connect 7 0 8 0;
#X connect 8 0 29 0;
#X connect 9 0 1 0;
#X connect 9 0 1 1;
#X connect 10 0 3 0;
#X connect 11 0 10 0;
#X connect 12 0 13 0;
#X connect 13 0 30 0;
#X connect 14 0 15 0;
#X connect 15 0 31 0;
#X connect 16 0 17 0;
#X connect 17 0 32 0;
#X connect 18 0 19 0;
#X connect 19 0 33 0;
#X connect 20 0 2 0;
#X connect 21 0 5 0;
#X connect 22 0 7 0;
#X connect 23 0 12 0;
#X connect 24 0 14 0;
#X connect 25 0 16 0;
#X connect 26 0 18 0;
#X connect 27 0 9 0;
#X connect 28 0 9 0;
#X connect 29 0 9 0;
