#N canvas -8 -8 1920 1037 12;
#X msg 220 26 devices;
#X msg 419 12 close;
#X obj 236 72 comport 0 9600;
#X obj 153 190 print;
#X obj 235 148 sel 13 10;
#X obj 233 211 zl group 100;
#X obj 228 279 iem_alisttosym;
#X obj 228 338 fromsymbol;
#X floatatom 225 427 5 0 0 0 - - -;
#X obj 830 631 osc~ 440;
#X obj 944 899 dac~;
#X floatatom 1054 613 5 0 0 0 - - -;
#X floatatom 1338 115 5 0 0 0 - - -;
#X obj 1051 667 osc~;
#X floatatom 1128 611 5 0 0 0 - - -;
#X obj 1125 665 osc~;
#X floatatom 1218 613 5 0 0 0 - - -;
#X obj 1215 667 osc~;
#X obj 956 808 *~ 0.1;
#X msg 829 392 440;
#X obj 830 325 loadbang;
#X floatatom 1304 614 5 0 0 0 - - -;
#X obj 1301 668 osc~;
#X floatatom 1378 612 5 0 0 0 - - -;
#X obj 1375 666 osc~;
#X floatatom 1468 614 5 0 0 0 - - -;
#X obj 1465 668 osc~;
#X floatatom 1563 616 5 0 0 0 - - -;
#X obj 1560 670 osc~;
#X obj 1050 563 * 2.23;
#X obj 1124 561 * 3.73;
#X obj 1214 563 * 4.81;
#X obj 1300 564 * 5.43;
#X obj 1374 562 * 6.24;
#X obj 1464 564 * 7.35;
#X obj 1559 566 * 8.12;
#X obj 1051 725 *~ 0.85;
#X obj 1125 723 *~ 0.75;
#X obj 1215 725 *~ 0.1;
#X obj 1301 726 *~ 0.65;
#X obj 1375 724 *~ 0.2;
#X obj 1465 726 *~ 0.55;
#X obj 1560 728 *~ 0.45;
#X msg 320 10 open 4;
#X connect 0 0 2 0;
#X connect 1 0 2 0;
#X connect 2 0 3 0;
#X connect 2 0 4 0;
#X connect 4 0 5 0;
#X connect 4 2 5 0;
#X connect 5 0 6 0;
#X connect 6 0 7 0;
#X connect 7 0 8 0;
#X connect 8 0 12 0;
#X connect 9 0 18 0;
#X connect 11 0 13 0;
#X connect 12 0 9 0;
#X connect 12 0 29 0;
#X connect 12 0 30 0;
#X connect 12 0 31 0;
#X connect 12 0 32 0;
#X connect 12 0 33 0;
#X connect 12 0 34 0;
#X connect 12 0 35 0;
#X connect 13 0 36 0;
#X connect 14 0 15 0;
#X connect 15 0 37 0;
#X connect 16 0 17 0;
#X connect 17 0 38 0;
#X connect 18 0 10 0;
#X connect 18 0 10 1;
#X connect 19 0 12 0;
#X connect 20 0 19 0;
#X connect 21 0 22 0;
#X connect 22 0 39 0;
#X connect 23 0 24 0;
#X connect 24 0 40 0;
#X connect 25 0 26 0;
#X connect 26 0 41 0;
#X connect 27 0 28 0;
#X connect 28 0 42 0;
#X connect 29 0 11 0;
#X connect 30 0 14 0;
#X connect 31 0 16 0;
#X connect 32 0 21 0;
#X connect 33 0 23 0;
#X connect 34 0 25 0;
#X connect 35 0 27 0;
#X connect 36 0 18 0;
#X connect 37 0 18 0;
#X connect 38 0 18 0;
#X connect 43 0 2 0;
