#N canvas 586 230 980 733 12;
#X msg 220 26 devices;
#X msg 419 12 close;
#X obj 236 72 comport 0 9600;
#X obj 153 190 print;
#X obj 235 148 sel 13 10;
#X obj 233 211 zl group 100;
#X obj 228 279 iem_alisttosym;
#X obj 228 338 fromsymbol;
#X floatatom 229 403 5 0 0 0 - - -;
#X obj 228 452 * 5;
#X floatatom 225 548 5 0 0 0 - - -;
#X obj 228 501 + 2000;
#X obj 96 568 noise~;
#X obj 91 652 *~ 0.5;
#X obj 92 695 dac~;
#X obj 94 613 bp~ 3000 7;
#X msg 320 10 open 4;
#X connect 0 0 2 0;
#X connect 1 0 2 0;
#X connect 2 0 3 0;
#X connect 2 0 4 0;
#X connect 4 0 5 0;
#X connect 4 2 5 0;
#X connect 5 0 6 0;
#X connect 6 0 7 0;
#X connect 7 0 8 0;
#X connect 8 0 9 0;
#X connect 9 0 11 0;
#X connect 10 0 15 1;
#X connect 11 0 10 0;
#X connect 12 0 15 0;
#X connect 13 0 14 0;
#X connect 13 0 14 1;
#X connect 15 0 13 0;
#X connect 16 0 2 0;
