#N canvas 953 0 958 1028 12;
#X msg 276 250 devices;
#X msg 475 236 close;
#X obj 293 344 comport 0 9600;
#X obj 209 414 print;
#X obj 295 451 sel 13 10;
#X obj 293 518 zl group 100;
#X obj 294 572 iem_alisttosym;
#X obj 293 630 fromsymbol;
#X floatatom 289 710 5 0 0 0 - - -;
#X msg 376 234 open 5;
#X connect 0 0 2 0;
#X connect 1 0 2 0;
#X connect 2 0 3 0;
#X connect 2 0 4 0;
#X connect 4 0 5 0;
#X connect 4 2 5 0;
#X connect 5 0 6 0;
#X connect 6 0 7 0;
#X connect 7 0 8 0;
#X connect 9 0 2 0;
