#N canvas 1140 302 663 488 12;
#X obj 111 339 *~;
#X obj 111 380 *~ 1;
#X obj 111 434 dac~;
#X obj 99 88 *~ 0.5;
#X obj 103 154 hip~ 4000;
#X obj 99 27 noise~;
#X obj 246 3 bng 19 250 50 0 empty empty empty 0 -10 0 12 #fcfcfc #000000 #000000;
#X msg 239 76 1 5;
#X obj 242 235 line;
#X obj 242 275 0.033;
#X obj 363 37 delay 5;
#X obj 364 75 bng 19 250 50 0 empty empty empty 0 -10 0 12 #fcfcfc #000000 #000000;
#X msg 366 128 0.5 100;
#X msg 471 179 0 150;
#X obj 472 140 bng 19 250 50 0 empty empty empty 0 -10 0 12 #fcfcfc #000000 #000000;
#X obj 477 111 delay 100;
#X connect 0 0 1 0;
#X connect 1 0 2 0;
#X connect 1 0 2 1;
#X connect 3 0 4 0;
#X connect 4 0 0 0;
#X connect 5 0 3 0;
#X connect 6 0 7 0;
#X connect 6 0 10 0;
#X connect 7 0 8 0;
#X connect 8 0 9 0;
#X connect 9 0 0 1;
#X connect 10 0 11 0;
#X connect 11 0 12 0;
#X connect 11 0 15 0;
#X connect 12 0 8 0;
#X connect 13 0 8 0;
#X connect 14 0 13 0;
#X connect 15 0 14 0;
