#N canvas 1156 523 727 483 12;
#X obj 158 43 noise~;
#X obj 166 220 *~ 0.5;
#X obj 167 303 dac~;
#X obj 160 129 lop~;
#X floatatom 223 45 5 0 0 0 - - - 0;
#X connect 0 0 3 0;
#X connect 1 0 2 0;
#X connect 1 0 2 1;
#X connect 3 0 1 0;
#X connect 4 0 3 1;
